<svg width="492" height="550" viewBox="0 0 492 550" fill="none" xmlns="http://www.w3.org/2000/svg">
<path d="M318.57 144.375C342.432 150.15 366.048 166.1 388.68 189.75C411.558 213.125 433.452 244.2 436.158 276.65C438.864 309.375 422.382 343.75 404.67 377.025C386.958 410.3 367.77 442.2 341.202 446.875C314.634 451.55 280.194 429.275 254.118 413.875C227.796 398.2 209.346 389.675 176.136 389.125C142.926 388.85 94.464 396.275 84.378 378.675C74.292 361.075 102.582 317.9 116.85 284.075C131.118 250.525 131.364 225.775 142.188 209.55C152.766 193.05 174.168 184.8 193.11 176C212.298 167.2 229.026 157.575 249.69 150.425C270.354 143.275 294.462 138.6 318.57 144.375Z" fill="url(#paint0_linear_9_22)"/>
<defs>
<linearGradient id="paint0_linear_9_22" x1="259.351" y1="141.779" x2="259.351" y2="447.507" gradientUnits="userSpaceOnUse">
<stop stop-color="#4328CD"/>
<stop offset="1" stop-color="#BC2D9D"/>
</linearGradient>
</defs>
</svg>
